<svg width="158" height="28" viewBox="0 0 158 28" fill="none" xmlns="http://www.w3.org/2000/svg">
<path d="M17.136 6.492C18.2453 6.492 19.2333 6.726 20.1 7.194C20.9667 7.64467 21.6513 8.32933 22.154 9.248C22.6567 10.1667 22.908 11.2847 22.908 12.602V21H20.568V12.94C20.568 11.5187 20.2127 10.4353 19.502 9.69C18.8087 8.92733 17.864 8.546 16.668 8.546C15.4373 8.546 14.458 8.94467 13.73 9.742C13.002 10.522 12.638 11.6573 12.638 13.148V21H10.298V12.94C10.298 11.5187 9.94267 10.4353 9.232 9.69C8.53867 8.92733 7.594 8.546 6.398 8.546C5.16733 8.546 4.188 8.94467 3.46 9.742C2.732 10.522 2.368 11.6573 2.368 13.148V21H0.00200018V6.752H2.368V8.806C2.836 8.06067 3.46 7.48867 4.24 7.09C5.03733 6.69133 5.91267 6.492 6.866 6.492C8.062 6.492 9.11933 6.76067 10.038 7.298C10.9567 7.83533 11.6413 8.624 12.092 9.664C12.4907 8.65867 13.1493 7.87867 14.068 7.324C14.9867 6.76933 16.0093 6.492 17.136 6.492ZM39.0611 6.752L30.4811 27.708H28.0371L30.8451 20.844L25.0991 6.752H27.7251L32.1971 18.296L36.6171 6.752H39.0611ZM52.6965 8.702H49.7065V21H47.3405V8.702H45.4945V6.752H47.3405V5.738C47.3405 4.14333 47.7478 2.982 48.5625 2.254C49.3945 1.50867 50.7205 1.136 52.5405 1.136V3.112C51.5005 3.112 50.7638 3.32 50.3305 3.736C49.9145 4.13467 49.7065 4.802 49.7065 5.738V6.752H52.6965V8.702ZM56.6771 4.438C56.2265 4.438 55.8451 4.282 55.5331 3.97C55.2211 3.658 55.0651 3.27667 55.0651 2.826C55.0651 2.37533 55.2211 1.994 55.5331 1.682C55.8451 1.37 56.2265 1.214 56.6771 1.214C57.1105 1.214 57.4745 1.37 57.7691 1.682C58.0811 1.994 58.2371 2.37533 58.2371 2.826C58.2371 3.27667 58.0811 3.658 57.7691 3.97C57.4745 4.282 57.1105 4.438 56.6771 4.438ZM57.8211 6.752V21H55.4551V6.752H57.8211ZM68.7956 6.492C70.5289 6.492 71.9329 7.02067 73.0076 8.078C74.0822 9.118 74.6196 10.626 74.6196 12.602V21H72.2796V12.94C72.2796 11.5187 71.9242 10.4353 71.2136 9.69C70.5029 8.92733 69.5322 8.546 68.3016 8.546C67.0536 8.546 66.0569 8.936 65.3116 9.716C64.5836 10.496 64.2196 11.6313 64.2196 13.122V21H61.8536V6.752H64.2196V8.78C64.6876 8.052 65.3202 7.48867 66.1176 7.09C66.9322 6.69133 67.8249 6.492 68.7956 6.492ZM77.6004 13.824C77.6004 12.368 77.8951 11.094 78.4844 10.002C79.0738 8.89267 79.8798 8.03467 80.9024 7.428C81.9424 6.82133 83.0951 6.518 84.3604 6.518C85.6084 6.518 86.6918 6.78667 87.6104 7.324C88.5291 7.86133 89.2138 8.53733 89.6644 9.352V6.752H92.0564V21H89.6644V18.348C89.1964 19.18 88.4944 19.8733 87.5584 20.428C86.6398 20.9653 85.5651 21.234 84.3344 21.234C83.0691 21.234 81.9251 20.922 80.9024 20.298C79.8798 19.674 79.0738 18.7987 78.4844 17.672C77.8951 16.5453 77.6004 15.2627 77.6004 13.824ZM89.6644 13.85C89.6644 12.7753 89.4478 11.8393 89.0144 11.042C88.5811 10.2447 87.9918 9.638 87.2464 9.222C86.5184 8.78867 85.7124 8.572 84.8284 8.572C83.9444 8.572 83.1384 8.78 82.4104 9.196C81.6824 9.612 81.1018 10.2187 80.6684 11.016C80.2351 11.8133 80.0184 12.7493 80.0184 13.824C80.0184 14.916 80.2351 15.8693 80.6684 16.684C81.1018 17.4813 81.6824 18.0967 82.4104 18.53C83.1384 18.946 83.9444 19.154 84.8284 19.154C85.7124 19.154 86.5184 18.946 87.2464 18.53C87.9918 18.0967 88.5811 17.4813 89.0144 16.684C89.4478 15.8693 89.6644 14.9247 89.6644 13.85ZM102.997 6.492C104.73 6.492 106.134 7.02067 107.209 8.078C108.283 9.118 108.821 10.626 108.821 12.602V21H106.481V12.94C106.481 11.5187 106.125 10.4353 105.415 9.69C104.704 8.92733 103.733 8.546 102.503 8.546C101.255 8.546 100.258 8.936 99.5127 9.716C98.7847 10.496 98.4207 11.6313 98.4207 13.122V21H96.0547V6.752H98.4207V8.78C98.8887 8.052 99.5214 7.48867 100.319 7.09C101.133 6.69133 102.026 6.492 102.997 6.492ZM111.802 13.85C111.802 12.3767 112.096 11.094 112.686 10.002C113.275 8.89267 114.09 8.03467 115.13 7.428C116.187 6.82133 117.392 6.518 118.744 6.518C120.494 6.518 121.933 6.94267 123.06 7.792C124.204 8.64133 124.958 9.82 125.322 11.328H122.774C122.531 10.4613 122.054 9.77667 121.344 9.274C120.65 8.77133 119.784 8.52 118.744 8.52C117.392 8.52 116.3 8.988 115.468 9.924C114.636 10.8427 114.22 12.1513 114.22 13.85C114.22 15.566 114.636 16.892 115.468 17.828C116.3 18.764 117.392 19.232 118.744 19.232C119.784 19.232 120.65 18.9893 121.344 18.504C122.037 18.0187 122.514 17.3253 122.774 16.424H125.322C124.94 17.88 124.178 19.05 123.034 19.934C121.89 20.8007 120.46 21.234 118.744 21.234C117.392 21.234 116.187 20.9307 115.13 20.324C114.09 19.7173 113.275 18.8593 112.686 17.75C112.096 16.6407 111.802 15.3407 111.802 13.85ZM141.479 13.33C141.479 13.7807 141.453 14.2573 141.401 14.76H130.013C130.099 16.164 130.576 17.2647 131.443 18.062C132.327 18.842 133.393 19.232 134.641 19.232C135.663 19.232 136.513 18.998 137.189 18.53C137.882 18.0447 138.367 17.4033 138.645 16.606H141.193C140.811 17.9753 140.049 19.0933 138.905 19.96C137.761 20.8093 136.339 21.234 134.641 21.234C133.289 21.234 132.075 20.9307 131.001 20.324C129.943 19.7173 129.111 18.8593 128.505 17.75C127.898 16.6233 127.595 15.3233 127.595 13.85C127.595 12.3767 127.889 11.0853 128.479 9.976C129.068 8.86667 129.891 8.01733 130.949 7.428C132.023 6.82133 133.254 6.518 134.641 6.518C135.993 6.518 137.189 6.81267 138.229 7.402C139.269 7.99133 140.066 8.806 140.621 9.846C141.193 10.8687 141.479 12.03 141.479 13.33ZM139.035 12.836C139.035 11.9347 138.835 11.1633 138.437 10.522C138.038 9.86333 137.492 9.36933 136.799 9.04C136.123 8.69333 135.369 8.52 134.537 8.52C133.341 8.52 132.318 8.90133 131.469 9.664C130.637 10.4267 130.16 11.484 130.039 12.836H139.035Z" fill="white"/>
<path d="M42.1935 21.156C41.7428 21.156 41.3615 21 41.0495 20.688C40.7375 20.376 40.5815 19.9947 40.5815 19.544C40.5815 19.0933 40.7375 18.712 41.0495 18.4C41.3615 18.088 41.7428 17.932 42.1935 17.932C42.6268 17.932 42.9908 18.088 43.2855 18.4C43.5975 18.712 43.7535 19.0933 43.7535 19.544C43.7535 19.9947 43.5975 20.376 43.2855 20.688C42.9908 21 42.6268 21.156 42.1935 21.156ZM157.342 15.774C157.342 16.6753 157.108 17.5247 156.64 18.322C156.189 19.102 155.513 19.752 154.612 20.272C153.728 20.7747 152.679 21.0693 151.466 21.156V23.262H149.802V21.13C148.068 20.974 146.673 20.454 145.616 19.57C144.558 18.6687 144.012 17.4553 143.978 15.93H147.878C147.982 17.178 148.623 17.932 149.802 18.192V13.226C148.554 12.914 147.548 12.602 146.786 12.29C146.023 11.978 145.364 11.4753 144.81 10.782C144.255 10.0887 143.978 9.144 143.978 7.948C143.978 6.44 144.515 5.20933 145.59 4.256C146.682 3.30267 148.086 2.75667 149.802 2.618V0.511999H151.466V2.618C153.13 2.75667 154.456 3.25933 155.444 4.126C156.449 4.99267 157.012 6.18867 157.134 7.714H153.208C153.156 7.21133 152.974 6.778 152.662 6.414C152.367 6.03267 151.968 5.764 151.466 5.608V10.522C152.766 10.8513 153.788 11.172 154.534 11.484C155.296 11.7787 155.955 12.2727 156.51 12.966C157.064 13.642 157.342 14.578 157.342 15.774ZM147.774 7.766C147.774 8.338 147.947 8.806 148.294 9.17C148.64 9.51667 149.143 9.80267 149.802 10.028V5.53C149.178 5.61667 148.684 5.85067 148.32 6.232C147.956 6.61333 147.774 7.12467 147.774 7.766ZM151.466 18.244C152.124 18.1227 152.636 17.854 153 17.438C153.381 17.022 153.572 16.5193 153.572 15.93C153.572 15.358 153.39 14.8987 153.026 14.552C152.662 14.2053 152.142 13.9193 151.466 13.694V18.244Z" fill="#49AA26"/>
</svg>
