<svg width="40" height="44" viewBox="0 0 40 44" fill="none" xmlns="http://www.w3.org/2000/svg">
<g filter="url(#filter0_d)">
<circle cx="20" cy="20" r="16" fill="white"/>
<circle cx="20" cy="20" r="15.5" stroke="#49AA26"/>
</g>
<path d="M26.742 23.774C26.742 24.6753 26.508 25.5247 26.04 26.322C25.5893 27.102 24.9133 27.752 24.012 28.272C23.128 28.7747 22.0793 29.0693 20.866 29.156V31.262H19.202V29.13C17.4687 28.974 16.0733 28.454 15.016 27.57C13.9587 26.6687 13.4127 25.4553 13.378 23.93H17.278C17.382 25.178 18.0233 25.932 19.202 26.192V21.226C17.954 20.914 16.9487 20.602 16.186 20.29C15.4233 19.978 14.7647 19.4753 14.21 18.782C13.6553 18.0887 13.378 17.144 13.378 15.948C13.378 14.44 13.9153 13.2093 14.99 12.256C16.082 11.3027 17.486 10.7567 19.202 10.618V8.512H20.866V10.618C22.53 10.7567 23.856 11.2593 24.844 12.126C25.8493 12.9927 26.4127 14.1887 26.534 15.714H22.608C22.556 15.2113 22.374 14.778 22.062 14.414C21.7673 14.0327 21.3687 13.764 20.866 13.608V18.522C22.166 18.8513 23.1887 19.172 23.934 19.484C24.6967 19.7787 25.3553 20.2727 25.91 20.966C26.4647 21.642 26.742 22.578 26.742 23.774ZM17.174 15.766C17.174 16.338 17.3473 16.806 17.694 17.17C18.0407 17.5167 18.5433 17.8027 19.202 18.028V13.53C18.578 13.6167 18.084 13.8507 17.72 14.232C17.356 14.6133 17.174 15.1247 17.174 15.766ZM20.866 26.244C21.5247 26.1227 22.036 25.854 22.4 25.438C22.7813 25.022 22.972 24.5193 22.972 23.93C22.972 23.358 22.79 22.8987 22.426 22.552C22.062 22.2053 21.542 21.9193 20.866 21.694V26.244Z" fill="#49AA26"/>
<defs>
<filter id="filter0_d" x="0" y="4" width="40" height="40" filterUnits="userSpaceOnUse" color-interpolation-filters="sRGB">
<feFlood flood-opacity="0" result="BackgroundImageFix"/>
<feColorMatrix in="SourceAlpha" type="matrix" values="0 0 0 0 0 0 0 0 0 0 0 0 0 0 0 0 0 0 127 0"/>
<feOffset dy="4"/>
<feGaussianBlur stdDeviation="2"/>
<feColorMatrix type="matrix" values="0 0 0 0 0 0 0 0 0 0 0 0 0 0 0 0 0 0 0.25 0"/>
<feBlend mode="normal" in2="BackgroundImageFix" result="effect1_dropShadow"/>
<feBlend mode="normal" in="SourceGraphic" in2="effect1_dropShadow" result="shape"/>
</filter>
</defs>
</svg>
